<svg width="600" height="400" viewBox="0 0 600 400" xmlns="http://www.w3.org/2000/svg">
<defs>
  <linearGradient id="bgInst" x1="0%" y1="0%" x2="100%" y2="100%">
    <stop offset="0%" stop-color="#0D2735"/>
    <stop offset="100%" stop-color="#1A4A5C"/>
  </linearGradient>
</defs>
<rect width="600" height="400" fill="url(#bgInst)"/>
<circle cx="300" cy="190" r="88" fill="#F7941D" opacity="0.06"/>
<circle cx="300" cy="190" r="62" fill="white" opacity="0.04"/>

  <rect x="232" y="140" width="136" height="100" rx="8" fill="none" stroke="#F7941D" stroke-width="2.5" opacity="0.5"/>
  <rect x="240" y="148" width="28" height="18" rx="3" fill="#F7941D" opacity="0.7"/>
  <rect x="274" y="148" width="28" height="18" rx="3" fill="#F7941D" opacity="0.5"/>
  <rect x="308" y="148" width="28" height="18" rx="3" fill="#F7941D" opacity="0.35"/>
  <rect x="342" y="148" width="18" height="84" rx="3" fill="#1EAAE5" opacity="0.4"/>
  <line x1="240" y1="178" x2="336" y2="178" stroke="white" stroke-width="1" opacity="0.2"/>
  <circle cx="252" cy="196" r="8" fill="none" stroke="#F7941D" stroke-width="2" opacity="0.6"/>
  <circle cx="280" cy="196" r="8" fill="none" stroke="#F7941D" stroke-width="2" opacity="0.4"/>
  <circle cx="252" cy="218" r="8" fill="#F7941D" opacity="0.5"/>
  <circle cx="280" cy="218" r="8" fill="none" stroke="#F7941D" stroke-width="2" opacity="0.3"/>
<text x="300" y="362" text-anchor="middle"
  font-family="system-ui,-apple-system,sans-serif"
  font-size="15" font-weight="700" fill="white" opacity="0.45"
  letter-spacing="4">INSTAL·LACIONS</text>
<line x1="272" y1="378" x2="328" y2="378"
  stroke="#F7941D" stroke-width="1.5" opacity="0.45"/>
</svg>