<svg width="600" height="400" viewBox="0 0 600 400" xmlns="http://www.w3.org/2000/svg">
<defs>
  <linearGradient id="bgACS " x1="0%" y1="0%" x2="100%" y2="100%">
    <stop offset="0%" stop-color="#0D2735"/>
    <stop offset="100%" stop-color="#1A4A5C"/>
  </linearGradient>
</defs>
<rect width="600" height="400" fill="url(#bgACS )"/>
<circle cx="300" cy="190" r="88" fill="#F7941D" opacity="0.06"/>
<circle cx="300" cy="190" r="62" fill="white" opacity="0.04"/>

  <path d="M300 130 L272 175 C260 198 275 225 300 225 C325 225 340 198 328 175 Z"
        fill="#1EAAE5" opacity="0.9"/>
  <path d="M300 195 C294 188 292 178 295 170" stroke="white" stroke-width="2" fill="none" opacity="0.35"/>
  <line x1="356" y1="148" x2="366" y2="148" stroke="#F7941D" stroke-width="2.5" stroke-linecap="round"/>
<line x1="351" y1="161" x2="358" y2="168" stroke="#F7941D" stroke-width="2.5" stroke-linecap="round"/>
<line x1="338" y1="166" x2="338" y2="176" stroke="#F7941D" stroke-width="2.5" stroke-linecap="round"/>
<line x1="325" y1="161" x2="318" y2="168" stroke="#F7941D" stroke-width="2.5" stroke-linecap="round"/>
<line x1="320" y1="148" x2="310" y2="148" stroke="#F7941D" stroke-width="2.5" stroke-linecap="round"/>
<line x1="325" y1="135" x2="318" y2="128" stroke="#F7941D" stroke-width="2.5" stroke-linecap="round"/>
<line x1="338" y1="130" x2="338" y2="120" stroke="#F7941D" stroke-width="2.5" stroke-linecap="round"/>
<line x1="351" y1="135" x2="358" y2="128" stroke="#F7941D" stroke-width="2.5" stroke-linecap="round"/>
  <circle cx="338" cy="148" r="12" fill="#F7941D"/>
<text x="300" y="362" text-anchor="middle"
  font-family="system-ui,-apple-system,sans-serif"
  font-size="15" font-weight="700" fill="white" opacity="0.45"
  letter-spacing="4">ACS SOLAR</text>
<line x1="272" y1="378" x2="328" y2="378"
  stroke="#F7941D" stroke-width="1.5" opacity="0.45"/>
</svg>