<svg width="600" height="400" viewBox="0 0 600 400" xmlns="http://www.w3.org/2000/svg">
<defs>
  <linearGradient id="bgCald" x1="0%" y1="0%" x2="100%" y2="100%">
    <stop offset="0%" stop-color="#0D2735"/>
    <stop offset="100%" stop-color="#1A4A5C"/>
  </linearGradient>
</defs>
<rect width="600" height="400" fill="url(#bgCald)"/>
<circle cx="300" cy="190" r="88" fill="#F7941D" opacity="0.06"/>
<circle cx="300" cy="190" r="62" fill="white" opacity="0.04"/>

  <path d="M300 118 C300 118 276 145 282 170
           C265 160 269 136 269 136
           C252 158 253 185 280 204
           C276 197 273 185 281 180
           C281 196 291 215 300 215
           C323 215 333 196 333 175
           C317 187 311 172 323 148
           C312 163 307 140 300 118Z"
        fill="#F7941D"/>
  <path d="M300 165 C296 172 294 185 300 192 C306 185 304 172 300 165Z"
        fill="white" opacity="0.25"/>
<text x="300" y="362" text-anchor="middle"
  font-family="system-ui,-apple-system,sans-serif"
  font-size="15" font-weight="700" fill="white" opacity="0.45"
  letter-spacing="4">CALDERES</text>
<line x1="272" y1="378" x2="328" y2="378"
  stroke="#F7941D" stroke-width="1.5" opacity="0.45"/>
</svg>